<?xml version="1.0" encoding="iso-8859-1"?>
<!-- Generator: Adobe Illustrator 19.0.0, SVG Export Plug-In . SVG Version: 6.00 Build 0)  -->
<svg xmlns="http://www.w3.org/2000/svg" xmlns:xlink="http://www.w3.org/1999/xlink" version="1.1" id="Capa_1" x="0px" y="0px" viewBox="0 0 512 512" style="enable-background:new 0 0 512 512;" xml:space="preserve" width="512px" height="512px">
<g>
	<g>
		<path d="M321.82,343.035c-8.228,10.875-21.142,18.02-35.798,18.02H135.937c-24.828,0-45.025-20.197-45.025-45.025V195.962    c0-22.896,17.238-41.646,39.381-44.456L65.5,86.714c-91.175,102.362-86.569,253.028,10.095,349.69    C172.19,533,322.851,537.739,425.285,446.499L321.82,343.035z" fill="#1b4965"/>
	</g>
</g>
<g>
	<g>
		<polygon points="331.047,220.248 331.047,291.743 391.081,321.76 391.081,190.231   " fill="#1b4965"/>
	</g>
</g>
<g>
	<g>
		<path d="M436.413,75.586C339.832-20.995,189.143-25.736,86.723,65.491l85.445,85.445h113.853    c21.803,0,40.017,15.584,44.133,36.194l69.222-34.612c9.968-5.015,21.721,2.313,21.721,13.426v180.102    c0,11.072-11.682,18.41-21.721,13.426L362.032,340.8l84.478,84.478C537.419,323.212,533.34,172.514,436.413,75.586z" fill="#1b4965"/>
	</g>
</g>
<g>
	<g>
		<path d="M286.022,180.954h-83.837l98.845,98.845v-83.836h0.001C301.03,187.681,294.302,180.954,286.022,180.954z" fill="#1b4965"/>
	</g>
</g>
<g>
	<g>
		<path d="M159.739,180.954h-23.802c-8.281,0-15.008,6.728-15.008,15.008V316.03c0,8.281,6.728,15.008,15.008,15.008h150.085    c6.447,0,11.843-4.124,13.964-9.839L159.739,180.954z" fill="#1b4965"/>
	</g>
</g>
<g>
</g>
<g>
</g>
<g>
</g>
<g>
</g>
<g>
</g>
<g>
</g>
<g>
</g>
<g>
</g>
<g>
</g>
<g>
</g>
<g>
</g>
<g>
</g>
<g>
</g>
<g>
</g>
<g>
</g>
</svg>
